HIERARCHY
ROOT Hips
{
	OFFSET 0.00000 0.00000 0.00000
	CHANNELS 6 Xposition Yposition Zposition Zrotation Yrotation Xrotation 
	JOINT LHipJoint
	{
		OFFSET 0 0 0
		CHANNELS 3 Zrotation Yrotation Xrotation
		JOINT LeftHip
		{
			OFFSET 1.64549 -1.70879 0.84566
			CHANNELS 3 Zrotation Yrotation Xrotation
			JOINT LeftKnee
			{
				OFFSET 2.24963 -6.18082 0.00000
				CHANNELS 3 Zrotation Yrotation Xrotation
				JOINT LeftAnkle
				{
					OFFSET 2.71775 -7.46697 0.00000
					CHANNELS 3 Zrotation Yrotation Xrotation
					JOINT LeftToe
					{
						OFFSET 0.18768 -0.51564 2.24737
						CHANNELS 3 Zrotation Yrotation Xrotation
						End Site
						{
							OFFSET 0.00000 -0.00000 1.15935
						}
					}
				}
			}
		}
	}
	JOINT RHipJoint
	{
		OFFSET 0 0 0
		CHANNELS 3 Zrotation Yrotation Xrotation
		JOINT RightHip
		{
			OFFSET -1.58830 -1.70879 0.84566
			CHANNELS 3 Zrotation Yrotation Xrotation
			JOINT RightKnee
			{
				OFFSET -2.25006 -6.18201 0.00000
				CHANNELS 3 Zrotation Yrotation Xrotation
				JOINT RightAnkle
				{
					OFFSET -2.72829 -7.49593 0.00000
					CHANNELS 3 Zrotation Yrotation Xrotation
					JOINT RightToe
					{
						OFFSET -0.21541 -0.59185 2.10643
						CHANNELS 3 Zrotation Yrotation Xrotation
						End Site
						{
							OFFSET -0.00000 -0.00000 1.09838
						}
					}
				}
			}
		}
	}
	JOINT lowerback
	{
		OFFSET 0 0 0
		CHANNELS 3 Zrotation Yrotation Xrotation
		JOINT Chest
		{
			OFFSET 0.03142 2.10496 -0.11038
			CHANNELS 3 Zrotation Yrotation Xrotation
			JOINT Chest2
			{
				OFFSET -0.01863 2.10897 -0.06956
				CHANNELS 3 Zrotation Yrotation Xrotation
				JOINT lowerneck
				{
					OFFSET 0 0 0
					CHANNELS 3 Zrotation Yrotation Xrotation
					JOINT Neck
					{
						OFFSET -0.02267 1.73238 0.00451
						CHANNELS 3 Zrotation Yrotation Xrotation
						JOINT Head
						{
							OFFSET -0.05808 1.54724 -0.61749
							CHANNELS 3 Zrotation Yrotation Xrotation
							End Site
							{
								OFFSET -0.01396 1.71468 -0.21082
							}
						}
					}
				}
				JOINT LeftCollar
				{
					OFFSET 0 0 0
					CHANNELS 3 Zrotation Yrotation Xrotation
					JOINT LeftShoulder
					{
						OFFSET 3.44898 0.50298 0.21920
CHANNELS 3 Zrotation Xrotation Yrotation
						JOINT LeftElbow
						{
OFFSET 0 -5.419170 -0.000000
CHANNELS 3 Zrotation Xrotation Yrotation
							JOINT LeftWrist
							{
OFFSET 0 -2.443730 0.000000
CHANNELS 3 Zrotation Xrotation Yrotation
								JOINT lhand
								{
									OFFSET 0 0 0
CHANNELS 3 Zrotation Xrotation Yrotation
									JOINT LFingers
									{
OFFSET 0 -0.727500 0.000000
CHANNELS 3 Zrotation Xrotation Yrotation
										End Site
										{
OFFSET 0 -0.586530 0.000000
										}
									}
								}
								JOINT LThumb
								{
OFFSET 0 0.000000 0.000000
CHANNELS 3 Zrotation Xrotation Yrotation
									End Site
									{
OFFSET 0 -0.595490 0.595490
									}
								}
							}
						}
					}
				}
				JOINT RightCollar
				{
					OFFSET 0 0 0
					CHANNELS 3 Zrotation Yrotation Xrotation
					JOINT RightShoulder
					{
						OFFSET -3.23015 0.55830 0.31051
CHANNELS 3 Zrotation Xrotation Yrotation
						JOINT RightElbow
						{
OFFSET 0 -5.589760 0.000140
CHANNELS 3 Zrotation Xrotation Yrotation
							JOINT RightWrist
							{
OFFSET 0 -2.480600 0.000000
CHANNELS 3 Zrotation Xrotation Yrotation
								JOINT rhand
								{
									OFFSET 0 0 0
CHANNELS 3 Zrotation Xrotation Yrotation
									JOINT RFingers
									{
OFFSET 0 -0.816010 0.000000
CHANNELS 3 Zrotation Xrotation Yrotation
										End Site
										{
OFFSET 0 -0.657890 0.000000
										}
									}
								}
								JOINT RThumb
								{
OFFSET 0 0.000000 0.000000
CHANNELS 3 Zrotation Xrotation Yrotation
									End Site
									{
OFFSET 0 -0.667930 0.667930
									}
								}
							}
						}
					}
				}
			}
		}
	}
}
MOTION
Frames: 10
Frame Time: 0.008333333333333333
4.796859 16.332351 -17.506738 -4.550436 -1.364587 30.151294 0.000000 0.000000 0.000000 -35.901685 9.429290 -46.606302 8.931654 16.763423 55.853316 -5.137433 47.169662 15.019377 0.465057 4.323940 11.996198 0.000000 0.000000 0.000000 29.272451 15.330543 -55.276775 -3.647401 -11.675750 34.594383 -0.075442 -14.638729 -21.583931 -0.132327 -2.344408 6.458471 1.449518 -0.232699 10.988727 12.007104 1.630505 -8.411480 12.996819 1.659433 -16.357414 1.979326 2.897532 -12.473079 -4.632952 3.799527 1.368886 -1.627517 1.729012 2.779371 0.000000 0.000000 0.000000 -52.737564 -60.635359 -75.877948 7.505309 -12.747862 0.839608 -13.202855 37.987232 -27.910756 0.000000 0.000000 0.000000 -7.125000 0.000000 0.000000 -43.841508 52.420107 9.497048 0.000000 0.000000 0.000000 6.554895 -66.445672 -121.055033 -5.520745 -9.460531 -0.457173 -10.628003 141.008220 -21.309193 0.000000 0.000000 0.000000 7.125000 0.000000 0.000000 11.431538 8.675488 9.777560
4.759030 16.281243 -17.489931 -4.533666 -1.770190 29.789910 0.000000 0.000000 0.000000 -36.055651 9.210092 -47.134710 9.390098 17.051849 57.428972 -6.965760 46.357677 4.917401 1.488412 7.704555 21.821574 0.000000 0.000000 0.000000 28.999616 16.088506 -54.944540 -3.781369 -11.863526 35.250995 -0.052783 -15.266566 -22.207535 -0.119151 -2.220848 6.116519 0.775711 -0.186668 10.846261 11.732838 1.499211 -8.259962 13.051827 1.626193 -16.040326 2.527914 2.807823 -12.168813 -4.488627 3.616096 1.962155 -1.694104 1.647688 2.930273 0.000000 0.000000 0.000000 -50.912965 -57.969092 -98.576996 9.154539 -15.404736 1.242441 -8.187114 16.825707 -31.463749 0.000000 0.000000 0.000000 -7.125000 0.000000 0.000000 -42.559317 56.095759 13.249690 0.000000 0.000000 0.000000 16.734406 -61.951939 -92.047220 -3.871339 -6.669707 -0.226040 -10.301925 111.856519 -19.253393 0.000000 0.000000 0.000000 7.125000 0.000000 0.000000 11.622307 10.741032 9.451975
4.717873 16.230828 -17.462684 -4.613911 -2.184434 29.094381 0.000000 0.000000 0.000000 -36.224027 9.469315 -47.575338 9.936468 17.373109 59.274622 -7.008802 45.073828 1.645655 1.985194 8.825675 25.257900 0.000000 0.000000 0.000000 29.147228 16.443888 -54.418908 -3.967871 -12.117125 36.148056 -0.004223 -15.801720 -22.462159 -0.043899 -1.348285 3.707649 0.040430 -0.233538 10.785895 11.666248 1.266028 -8.112847 13.450103 1.575940 -15.779317 1.980055 2.862372 -10.064327 -3.620131 3.741837 1.705672 -1.317347 1.761963 2.412222 0.000000 0.000000 0.000000 -55.110624 -52.666742 -85.686355 8.152832 -13.798509 0.990102 -8.345481 33.511547 -27.952233 0.000000 0.000000 0.000000 -7.125000 0.000000 0.000000 -39.674977 53.326164 9.284042 0.000000 0.000000 0.000000 23.932664 -57.417427 -64.730244 -3.006619 -5.190573 -0.137701 -8.782247 81.421559 -16.372497 0.000000 0.000000 0.000000 7.125000 0.000000 0.000000 12.661646 13.693523 9.512545
4.666611 16.170987 -17.467268 -4.741949 -2.374133 28.388021 0.000000 0.000000 0.000000 -36.319594 9.556167 -48.283624 10.578267 17.721464 61.402947 -7.067989 43.563642 -3.065660 2.278349 9.417008 27.113563 0.000000 0.000000 0.000000 29.239266 16.925911 -54.351068 -4.252679 -12.488386 37.483635 -0.061170 -15.999024 -23.283053 -0.057724 -1.532087 4.214552 -0.683063 -0.237011 10.810039 11.672525 1.097890 -7.782389 13.903186 1.543697 -15.364772 1.854297 2.918167 -9.070437 -3.176016 3.828547 1.891693 -1.155422 1.826982 2.277343 0.000000 0.000000 0.000000 -53.655446 -50.626226 -105.090686 10.059764 -16.824565 1.499337 -7.094840 10.088943 -32.915066 0.000000 0.000000 0.000000 -7.125000 0.000000 0.000000 -43.097788 57.458128 14.873279 0.000000 0.000000 0.000000 29.812923 -54.457790 -38.631961 -2.495495 -4.311840 -0.097085 -9.727449 50.029279 -12.939111 0.000000 0.000000 0.000000 7.125000 0.000000 0.000000 12.113438 17.040246 8.232291
4.638961 16.113980 -17.396473 -4.625403 -2.240772 27.636370 0.000000 0.000000 0.000000 -36.762357 9.928084 -48.331714 11.096742 17.981855 63.095131 -5.177750 37.907053 -4.222227 1.362638 7.342451 20.754682 0.000000 0.000000 0.000000 29.732638 15.829797 -54.526049 -4.622959 -12.945065 39.165013 -0.289343 -14.957346 -24.043252 -0.076345 -1.781985 4.903492 -0.817283 -0.369165 9.960000 11.445278 0.764938 -7.356692 13.632128 1.283276 -14.198390 1.418933 2.844213 -8.658271 -2.186836 3.746211 2.485896 -0.768508 1.812245 2.360063 0.000000 0.000000 0.000000 -55.947400 -47.142187 -99.680810 9.316314 -15.663156 1.284171 -13.761782 15.361433 -28.142175 0.000000 0.000000 0.000000 -7.125000 0.000000 0.000000 -44.504843 52.497612 9.783909 0.000000 0.000000 0.000000 34.722023 -49.983887 -13.972850 -3.210029 -5.539349 -0.156179 -10.110384 17.968679 -9.941889 0.000000 0.000000 0.000000 7.125000 0.000000 0.000000 11.989886 19.989590 7.332732
4.611887 16.071746 -17.323704 -4.641594 -1.782235 26.514103 0.000000 0.000000 0.000000 -36.823433 10.375239 -47.892545 11.537427 18.187801 64.514477 -3.823565 32.558513 -7.434747 1.065411 6.561372 18.422475 0.000000 0.000000 0.000000 30.516476 14.403340 -54.418919 -5.003951 -13.387482 40.838344 -0.425993 -14.439674 -24.614677 -0.064760 -1.591869 4.380040 -0.503857 -0.623362 9.806030 11.239324 0.391409 -6.964003 13.182968 0.993555 -13.508273 0.719484 2.740939 -8.210745 -1.072396 3.636720 3.087999 -0.299605 1.784816 2.434058 0.000000 0.000000 0.000000 -56.773295 -44.982381 -101.445678 9.444504 -15.860603 1.323827 -18.816332 10.573440 -26.715244 0.000000 0.000000 0.000000 -7.125000 0.000000 0.000000 -47.500768 50.536384 8.117360 0.000000 0.000000 0.000000 37.511494 -43.792616 8.160544 -5.554833 -9.512824 -0.469701 -10.860002 -12.382861 -5.480781 0.000000 0.000000 0.000000 7.125000 0.000000 0.000000 11.747503 24.406844 5.977710
4.578436 16.003028 -17.271492 -4.868023 -1.578438 25.340786 0.000000 0.000000 0.000000 -36.725286 10.750126 -47.968681 12.052040 18.412170 66.153188 -3.164632 29.860991 -7.658337 0.293881 3.312575 9.163161 0.000000 0.000000 0.000000 31.215507 13.701666 -54.127751 -5.362121 -13.779850 42.363578 -0.427091 -14.919152 -25.169950 -0.017007 -0.787620 2.165043 -0.280474 -0.780155 9.711886 11.087674 0.153446 -6.625735 12.852058 0.804704 -12.981849 0.595478 2.731502 -6.838313 -0.840518 3.631130 3.319789 -0.224384 1.792087 2.249815 0.000000 0.000000 0.000000 -55.768451 -43.856849 -110.861662 10.837109 -18.037382 1.725824 -23.666926 -2.554906 -28.209389 0.000000 0.000000 0.000000 -7.125000 0.000000 0.000000 -52.530997 50.791105 9.856100 0.000000 0.000000 0.000000 38.233628 -36.985455 29.373559 -9.062750 -15.255689 -1.220880 -15.273467 -39.141699 -0.550447 0.000000 0.000000 0.000000 7.125000 0.000000 0.000000 8.823897 29.359166 3.410678
4.533751 15.902079 -17.238331 -4.952493 -1.442166 24.201893 0.000000 0.000000 0.000000 -36.790365 11.012964 -48.195203 12.586839 18.627833 67.837318 -2.230331 25.318226 -9.137528 0.020991 -0.893609 -2.456545 0.000000 0.000000 0.000000 31.514938 13.526277 -53.695466 -5.751314 -14.182793 43.975048 -0.854004 -14.217224 -27.754279 -0.146543 -2.465542 6.794222 0.106526 -0.804221 8.863576 10.479034 -0.023513 -5.720130 11.719913 0.523153 -11.325512 2.441739 2.286269 -6.984080 -2.000861 2.936745 3.901453 -0.937119 1.436430 2.525106 0.000000 0.000000 0.000000 -55.401423 -43.086670 -114.544922 12.080944 -19.925043 2.130407 -27.225572 -4.447963 -27.450249 0.000000 0.000000 0.000000 -7.125000 0.000000 0.000000 -54.486557 49.641374 8.539252 0.000000 0.000000 0.000000 40.206936 -34.209078 38.746902 -10.861102 -18.074939 -1.732618 -16.692263 -46.953053 2.569193 0.000000 0.000000 0.000000 7.125000 0.000000 0.000000 8.003138 32.590308 2.452541
4.501738 15.808421 -17.180315 -5.178242 -0.872714 22.797458 0.000000 0.000000 0.000000 -36.612705 11.587056 -47.949640 13.021936 18.789950 69.193488 -1.781575 22.960489 -11.608486 0.285709 -3.415820 -9.440532 0.000000 0.000000 0.000000 32.061895 12.843169 -53.086018 -6.202241 -14.621204 45.787415 -0.847143 -14.615783 -28.107016 -0.088376 -1.896250 5.219784 0.281004 -0.829274 8.896963 10.603048 -0.074284 -5.088016 11.709497 0.443058 -10.613856 1.725886 2.060209 -6.270306 -1.830660 2.701690 3.804768 -0.773542 1.317248 2.337259 0.000000 0.000000 0.000000 -54.966185 -43.127599 -119.814574 14.423621 -23.334182 2.995631 -31.987828 -6.949608 -26.033906 0.000000 0.000000 0.000000 -7.125000 0.000000 0.000000 -56.442671 47.842010 5.734852 0.000000 0.000000 0.000000 40.857052 -32.988069 47.233563 -11.587941 -19.183206 -1.965263 -17.031432 -48.496602 3.621918 0.000000 0.000000 0.000000 7.125000 0.000000 0.000000 7.841645 33.690683 2.193183
4.458926 15.708573 -17.146011 -5.245785 -0.053190 21.497188 0.000000 0.000000 0.000000 -36.536985 11.862308 -47.732006 13.303957 18.889124 70.066890 -0.825344 17.769184 -15.304128 0.693055 -5.296591 -14.761948 0.000000 0.000000 0.000000 32.263473 12.458766 -52.990323 -6.739043 -15.107250 47.878822 -0.730537 -15.705458 -28.398794 -0.018174 -0.859371 2.362006 0.527302 -0.780870 9.271181 10.442705 0.014451 -4.804339 11.347390 0.450474 -10.528190 1.197363 1.764626 -4.813809 -1.177813 2.327981 3.382782 -0.500939 1.147494 1.906499 0.000000 0.000000 0.000000 -53.108595 -43.779809 -126.264238 18.211168 -28.411161 4.657511 -36.239051 -8.965120 -24.498703 0.000000 0.000000 0.000000 -7.125000 0.000000 0.000000 -57.564721 46.024479 2.221696 0.000000 0.000000 0.000000 39.871940 -31.645159 58.827934 -13.495302 -22.002876 -2.639915 -17.785530 -47.684776 6.802003 0.000000 0.000000 0.000000 7.125000 0.000000 0.000000 7.614503 37.025379 1.505405
